<svg width="277" height="256" viewBox="0 0 277 256" fill="none" xmlns="http://www.w3.org/2000/svg">
<g clip-path="url(#clip0_208_301)">
<path d="M276.936 239.939C275.139 237.91 271.91 237.34 269.91 235.337C267.15 232.573 266.504 228.656 265.466 225.068C265.403 224.866 265.276 224.701 265.111 224.587C264.96 224.473 264.782 224.422 264.592 224.409C264.58 224.409 264.567 224.409 264.554 224.409C264.542 224.409 264.529 224.409 264.516 224.409C264.327 224.409 264.149 224.473 263.997 224.587C263.833 224.701 263.706 224.853 263.643 225.068C262.567 228.783 261.858 232.383 259.199 235.337C257.262 237.492 253.996 237.872 252.16 239.939C252.096 240.015 252.084 240.129 252.147 240.205C252.096 240.281 252.096 240.395 252.16 240.471C253.958 242.499 257.186 243.07 259.199 245.073C261.959 247.836 262.605 251.754 263.643 255.341C263.706 255.544 263.833 255.709 263.997 255.823C264.149 255.937 264.327 255.988 264.516 256C264.529 256 264.542 256 264.554 256C264.567 256 264.58 256 264.592 256C264.782 256 264.96 255.937 265.111 255.823C265.276 255.709 265.403 255.557 265.466 255.341C266.529 251.627 267.238 248.039 269.91 245.073C271.847 242.918 275.113 242.537 276.936 240.471C277 240.395 277.012 240.281 276.949 240.205C277.012 240.129 277 240.015 276.936 239.939Z" fill="#FE97C4"/>
<path d="M267.795 242.956C266.377 244.337 265.276 246.061 264.529 247.925C263.769 246.112 262.668 244.426 261.313 242.956C260.478 242.043 259.11 240.94 257.629 240.192C259.098 239.431 260.427 238.316 261.313 237.454C262.731 236.072 263.833 234.348 264.58 232.472C265.339 234.284 266.441 235.983 267.795 237.454C268.631 238.366 269.998 239.469 271.48 240.217C270.011 240.991 268.682 242.094 267.795 242.956Z" fill="#FEE588"/>
<path d="M39.64 45.8274C36.7661 43.1145 31.6132 42.3412 28.4101 39.6537C23.9916 35.952 22.9788 30.691 21.3202 25.8737C21.2316 25.5948 21.0164 25.392 20.7632 25.2399C20.5226 25.0877 20.2314 25.0117 19.9276 24.999C19.9022 24.999 19.8896 24.999 19.8643 24.9863C19.8389 24.9863 19.8263 24.9863 19.801 24.999C19.4971 24.999 19.2059 25.0751 18.9654 25.2272C18.6995 25.3793 18.4969 25.5948 18.4083 25.8737C16.6991 30.8431 15.5723 35.6731 11.3184 39.6537C8.21656 42.544 3.01308 43.0511 0.0884929 45.8274C-0.0127914 45.9288 -0.025452 46.0809 0.0631718 46.1823C-0.025452 46.2964 -0.0127914 46.4485 0.0884929 46.5373C2.96244 49.2628 8.11528 50.0235 11.3184 52.711C15.7369 56.4127 16.7624 61.661 18.4083 66.4783C18.5096 66.7572 18.7121 66.9727 18.9654 67.1248C19.2059 67.2769 19.4971 67.353 19.801 67.353C19.8263 67.353 19.8389 67.353 19.8643 67.3657C19.8896 67.3657 19.9022 67.3657 19.9276 67.353C20.2314 67.353 20.5226 67.2769 20.7632 67.1121C21.0164 66.96 21.2189 66.7572 21.3202 66.4783C23.0294 61.5089 24.1562 56.6789 28.4101 52.711C31.512 49.8206 36.7154 49.3136 39.64 46.5373C39.7413 46.4359 39.754 46.2837 39.6653 46.1823C39.754 46.0809 39.7413 45.9288 39.64 45.8274Z" fill="#FE97C4"/>
<path d="M25.0423 49.884C22.7887 51.7349 21.0163 54.0548 19.8262 56.5521C18.6107 54.1182 16.8509 51.849 14.686 49.884C13.344 48.6544 11.179 47.1711 8.79883 46.1697C11.1284 45.1428 13.2807 43.6596 14.686 42.4933C16.9396 40.6425 18.712 38.3226 19.9021 35.8252C21.1175 38.2592 22.8774 40.5284 25.0296 42.4933C26.3717 43.7103 28.5366 45.1935 30.9168 46.2077C28.5873 47.2345 26.4476 48.7177 25.0423 49.884Z" fill="#FEE588"/>
<path d="M42.9958 11.4347C42.73 10.0275 38.8432 9.03872 37.6658 8.15133C35.045 6.17371 34.6146 3.27067 33.3865 0.646529C33.2979 0.456373 33.1459 0.304249 32.956 0.190155C32.7915 0.0760622 32.6015 0.0253541 32.399 0.012677C32.3737 0.012677 32.3483 0 32.323 0C32.2977 0 32.285 0.012677 32.2597 0.012677C32.0445 0.012677 31.8419 0.0760622 31.6647 0.202833C31.4874 0.316926 31.3355 0.456373 31.2469 0.646529C29.8922 3.52421 29.3858 6.32584 26.5118 8.49361C25.7395 9.07675 21.2577 10.4205 21.6249 11.5615C21.6249 11.5741 21.6375 11.5741 21.6375 11.5868C21.6375 11.6248 21.6122 11.6755 21.6249 11.7136C21.8907 13.1207 25.7775 14.1095 26.9549 14.9969C29.5757 16.9745 30.0188 19.8776 31.2342 22.4891C31.3228 22.6792 31.4748 22.8313 31.652 22.9328C31.8166 23.0468 32.0065 23.1102 32.2217 23.1102C32.2597 23.1102 32.285 23.1356 32.3104 23.1356C32.3357 23.1356 32.3483 23.1229 32.3737 23.1229C32.5889 23.1229 32.7915 23.0595 32.9687 22.9328C33.1459 22.8187 33.2979 22.6792 33.3865 22.4891C34.7285 19.6114 35.2476 16.8224 38.1215 14.642C38.8938 14.0588 43.3757 12.7277 42.9958 11.5741C42.9958 11.5615 42.9832 11.5615 42.9832 11.5488C42.9832 11.5234 43.0085 11.4854 42.9958 11.4347Z" fill="#FE97C4"/>
<path d="M32.2835 16.036C31.4479 14.7049 30.3085 13.5006 29.0171 12.5625C28.5233 12.2075 27.9916 11.8906 27.4219 11.599C28.1688 11.1934 28.8778 10.6989 29.4729 10.2679C30.625 9.43124 31.6252 8.34102 32.3595 7.12402C33.1951 8.45511 34.3345 9.65943 35.6259 10.5975C36.1197 10.9525 36.6641 11.2694 37.2211 11.561C36.4742 11.9667 35.7652 12.4611 35.1701 12.8921C34.0054 13.7288 33.0178 14.8317 32.2835 16.036Z" fill="#FEE588"/>
<path d="M270.454 76.2266L269.542 75.9603C268.985 75.8462 268.492 75.8082 268.061 75.8082C265.124 75.8082 262.617 77.5957 261.3 80.7903L260.769 82.096C260.186 83.9342 259.617 85.747 259.072 87.5471C256.907 94.6463 254.565 101.783 252.033 108.895C251.488 110.594 250.843 112.242 250.083 113.827C250.159 112.99 250.248 112.166 250.336 111.342L250.552 109.618C251.083 106.068 251.362 102.455 251.362 98.9058V98.2592C251.235 88.9923 247.83 81.2974 241.107 75.2631C241.689 73.8179 242.196 72.3474 242.601 70.8515C243.322 68.2654 243.677 65.5525 243.677 62.7889C243.677 61.9522 243.626 61.0902 243.525 60.1901C242.664 52.6092 238.233 47.6399 230.978 46.1947C228.636 45.7637 226.281 46.0299 224.091 46.8158C222.901 47.2469 221.711 47.7793 220.394 48.5019C216.469 50.8345 213.469 53.9657 211.469 57.8068C210.177 60.3042 209.342 62.9157 208.911 65.5779C208.037 65.5145 207.164 65.5398 206.29 65.7173C204.176 62.1424 200.77 59.7591 196.39 58.859C192.946 58.0731 189.591 58.4153 186.527 59.7844C184.755 60.5831 183.084 61.648 181.564 62.9664C177.589 66.4145 174.576 70.3951 172.626 74.8067C171.917 76.404 171.385 78.0774 170.929 79.7888C170.461 80.1818 169.955 80.5368 169.486 80.9424C167.878 78.2929 165.992 75.897 163.852 73.8052C161.282 71.2318 158.142 69.6979 154.838 69.3049C153.66 67.6315 152.179 66.2497 150.407 65.1849C147.444 63.4228 144.165 62.7382 140.595 63.296C135.531 64.1073 131.061 66.7695 127.39 71.1304C123.769 75.2124 121.186 79.6747 119.578 84.4286L119.616 83.8581C119.616 82.2608 119.401 80.6635 118.983 79.0916C118.515 77.3675 117.717 75.7322 116.514 74.0715C113.451 70.1923 109.817 69.381 107.298 69.381C105.829 69.381 104.348 69.6852 102.942 70.2684C100.613 71.2065 98.6124 72.677 97.0805 74.5278C96.9919 74.6293 96.9033 74.7307 96.8273 74.8321C96.5994 71.3079 94.8649 68.2781 91.5732 65.8948C87.2939 63.1692 82.5209 63.258 78.1403 65.9455C75.1525 67.8344 72.8482 70.4078 71.3543 73.4503C70.2275 75.5674 69.3666 77.7605 68.6449 79.9663C67.9992 80.4734 67.3282 80.9804 66.7205 81.5129C63.1249 84.53 59.58 87.6613 56.1237 90.8432L56.0224 90.6277C55.402 89.2205 54.8829 87.75 54.4904 86.2921C54.4778 86.2414 54.4651 86.178 54.4525 86.1273C56.1616 86.495 58.0101 86.3682 59.9978 85.6202C61.3525 85.0751 62.5552 84.3145 63.4161 83.5159C66.4547 80.9424 68.5563 77.6717 69.7084 73.6658C70.1262 72.0938 70.3414 70.5219 70.3414 69.0133C70.3414 64.6778 68.7842 60.7986 65.8469 57.7688C62.8717 54.7136 59.0103 53.0783 54.1993 52.9135C50.7303 52.9135 47.4638 53.5347 44.4886 54.777C41.3868 56.0574 38.6268 58.1111 36.2719 60.862C31.233 66.7188 28.3338 73.6151 27.6628 81.5509C27.6248 82.3749 27.5994 83.1862 27.5994 84.0103C27.5994 87.0908 27.9919 90.1586 28.7769 93.1377C29.5239 95.9901 30.5494 98.817 31.8407 101.568C33.3473 104.75 34.8919 107.932 36.4872 111.101C35.5503 112.305 34.6514 113.535 33.8031 114.79C32.0053 117.427 30.4101 120.229 29.0681 123.106C27.6501 126.149 26.6372 129.419 26.0549 132.931C25.865 134.211 25.7637 135.492 25.7637 136.734C25.7637 138.788 26.0549 140.829 26.6373 142.794C27.2576 144.898 28.2831 146.888 29.815 148.866C33.4866 153.328 38.4749 155.674 44.2227 155.674C46.2991 155.674 48.4134 155.293 50.5024 154.533C52.642 153.759 54.6677 152.53 56.5415 150.856C63.5934 144.518 67.2903 136.48 67.5181 126.846V125.756C67.5181 119.126 66.2014 112.686 63.606 106.563C64.9227 105.118 66.2901 103.698 67.6321 102.265C68.5563 105.599 70.1515 108.667 72.4937 111.405C76.2033 115.817 81.3688 117.68 86.9268 116.514L87.2559 116.438C90.1552 115.614 92.6873 114.156 94.751 112.141C94.8396 112.521 94.9282 112.901 95.0168 113.282C96.3209 118.758 99.0556 123.461 103.132 127.264L103.474 127.556C106.601 129.99 109.893 131.22 113.273 131.22C115.907 131.22 118.414 130.497 120.718 129.077C122.921 127.721 124.782 125.768 126.364 123.056C127.023 121.788 127.592 120.431 128.124 118.809C128.225 118.441 128.276 118.099 128.377 117.731C131.137 119.164 134.1 119.759 137.037 119.341C135.138 122.523 133.492 125.832 132.1 129.255C129.58 135.251 128.289 140.841 128.301 146.115L128.441 148.676C128.96 153.328 130.821 157.169 133.961 160.072C137.151 163.014 141.038 164.509 145.532 164.509C146.495 164.509 147.482 164.433 148.482 164.256C154.015 163.28 158.699 160.643 162.333 156.472C166.916 151.376 170.41 145.507 172.689 139.054C175.69 130.674 177.209 122.079 177.209 113.51C177.209 111.114 177.082 108.68 176.867 106.258C178.108 107.197 179.336 107.805 180.476 108.185V108.426L180.64 108.236C181.843 108.604 182.932 108.718 183.831 108.718C186.527 108.718 189.097 107.767 191.465 105.891L191.731 105.675C192.098 105.346 192.452 105.003 192.794 104.648C192.933 106.93 193.212 109.212 193.592 111.431C194.263 115.906 195.757 120.165 198.074 124.171C199.428 126.402 201.201 128.126 203.328 129.293C205.417 130.434 207.62 131.004 209.899 131.004C212.393 131.004 214.811 130.51 217.09 129.521C220.141 128.202 222.382 125.35 224.053 120.495C225.243 116.273 226.421 111.988 227.585 107.653C227.535 108.68 227.547 109.681 227.471 110.721C227.357 112.686 227.256 114.651 227.18 116.616V117.858C227.18 119.924 227.357 122.003 227.687 123.88C228.408 129.077 230.624 133.603 234.384 137.469C237.309 140.284 240.955 141.767 244.93 141.767H245.563L245.791 141.741C250.514 141.31 254.476 139.269 257.452 135.834C260.87 132.196 263.415 127.911 265.061 122.992C268.086 113.256 270.821 103.292 273.151 93.5307C273.961 90.5263 274.569 87.4331 274.936 84.3525C275.012 83.9342 275.05 83.5032 275.05 83.0722C275.075 79.9283 273.353 77.3802 270.454 76.2266Z" fill="#FE97C4"/>
<path d="M44.2102 151.338C39.931 151.338 36.424 149.677 33.6893 146.356C32.6512 145 31.9042 143.58 31.4611 142.071C31.018 140.563 30.8027 139.029 30.8027 137.444C30.8027 136.443 30.8787 135.416 31.0306 134.376C31.537 131.41 32.398 128.595 33.626 125.959C34.8541 123.322 36.2974 120.774 37.9559 118.352C38.9561 116.882 40.0196 115.462 41.1337 114.068L41.8301 113.142C42.058 112.876 42.1719 112.584 42.1719 112.28C42.1719 112.052 42.1086 111.811 41.9947 111.583C40.0702 107.767 38.1965 103.939 36.386 100.123C35.2339 97.6509 34.3097 95.1408 33.6387 92.5674C32.9677 90.0066 32.6259 87.3825 32.6259 84.7203C32.6259 83.985 32.6512 83.2497 32.6892 82.5272C33.2715 75.8083 35.7277 69.9262 40.0829 64.8807C41.9314 62.7256 44.0457 61.1537 46.4132 60.1649C48.7807 59.1761 51.3761 58.6943 54.1868 58.6943C57.5038 58.8084 60.1752 59.924 62.2262 62.0157C64.2645 64.1201 65.2901 66.6935 65.2901 69.736C65.2901 70.8136 65.1381 71.9292 64.8216 73.0954C63.9734 76.0238 62.4161 78.4578 60.1372 80.3847C59.5548 80.9298 58.8838 81.3482 58.1115 81.6524C57.4912 81.8806 56.8961 81.9947 56.3137 81.9947C55.3515 81.9947 54.5539 81.6905 53.9209 81.0693C53.2879 80.4481 52.908 79.5607 52.7941 78.4071L52.7308 77.7099L52.7941 76.6704L52.7308 76.0365V75.7449C52.7308 75.0857 52.5789 74.4139 52.2624 73.7166C50.224 75.8337 49.1352 78.3311 49.0213 81.1834L48.9073 83.0342C48.9073 84.8471 49.1352 86.6092 49.6036 88.3332C50.0721 90.0446 50.6671 91.7434 51.4014 93.3914L53.022 96.7508C53.4018 97.4861 53.7943 98.234 54.1741 99.0073C54.326 99.4383 54.5033 99.6411 54.6932 99.6411C54.8831 99.6411 55.111 99.489 55.3895 99.1721C60.0866 94.6591 64.9482 90.2982 69.9491 86.0894C71.6456 84.6189 73.4308 83.2878 75.3299 82.0961C75.9882 81.6778 76.5579 81.4623 77.0644 81.4623C77.6088 81.4623 78.0645 81.6905 78.457 82.1595C78.7229 82.5018 78.8622 82.9075 78.8622 83.3765C78.8622 83.9597 78.533 84.5682 77.8746 85.2274C71.2025 91.7434 64.733 98.4749 58.4534 105.422C58.1115 105.802 57.9343 106.195 57.9343 106.575C57.9343 106.842 57.9976 107.133 58.1115 107.438C60.9981 113.497 62.4414 119.848 62.4414 126.478V127.518C62.2515 135.619 59.1497 142.375 53.1359 147.776C51.7433 149.006 50.2873 149.906 48.7427 150.463C47.2361 151.047 45.7169 151.338 44.2102 151.338ZM42.8809 140.157C43.1468 140.157 43.4253 140.043 43.6912 139.815C45.1978 138.42 46.16 136.772 46.5778 134.833C46.8816 133.21 47.0462 131.613 47.0462 130.028C47.0462 127.48 46.7044 124.932 46.008 122.384C43.9317 125.426 42.3491 128.71 41.273 132.221C40.8046 133.616 40.5767 135.061 40.5767 136.557V136.962C40.6147 138.154 41.1337 139.117 42.1339 139.853C42.3998 140.068 42.653 140.157 42.8809 140.157Z" fill="#FEE588"/>
<path d="M113.287 126.91C111.046 126.91 108.818 126.048 106.577 124.311C103.222 121.18 101.006 117.364 99.93 112.851C99.1957 109.922 98.8285 106.969 98.8285 104.002L98.9425 100.757C98.9425 99.9836 98.9805 99.2484 99.0564 98.5638V98.3737L98.8285 98.2596C98.1702 99.2991 97.5625 100.339 96.9801 101.391C95.6254 103.787 94.0682 106.018 92.2957 108.11C90.5992 110.189 88.4595 111.596 85.8768 112.331C85.1425 112.483 84.4335 112.559 83.7372 112.559C80.8506 112.559 78.3818 111.342 76.3434 108.908C73.6087 105.701 72.0895 102.037 71.7729 97.9173C71.659 96.5735 71.5957 95.2424 71.5957 93.924C71.5957 90.8815 71.9375 87.9024 72.6085 85.0121C73.2796 82.1217 74.3557 79.3074 75.8117 76.5565C76.9638 74.1986 78.6476 72.335 80.8379 70.9406C82.2306 70.0912 83.6359 69.6729 85.0539 69.6729C86.3199 69.6729 87.5986 70.0785 88.8647 70.8898C90.8271 72.3224 91.8146 74.1478 91.8146 76.3917C91.8146 77.3551 91.6247 78.3566 91.2322 79.3961C90.0041 82.7556 88.9786 86.191 88.1684 89.7026C87.9784 90.59 87.8645 91.4774 87.8265 92.3647C87.7885 93.2521 87.7632 94.1395 87.7632 95.0269H87.9405C88.0544 95.0269 88.143 95.0016 88.2063 94.9382C88.2696 94.8748 88.3076 94.8114 88.3456 94.7354C88.3836 94.6593 88.4216 94.5959 88.4596 94.5579C90.5359 92.0858 92.4603 89.5758 94.2454 87.0404C96.3217 84.112 98.5373 81.2977 100.892 78.5848C101.968 77.2791 103.285 76.3029 104.817 75.6944C105.665 75.3522 106.488 75.1747 107.298 75.1747C109.337 75.1747 111.097 76.1001 112.553 77.951C113.287 78.9524 113.806 80.03 114.11 81.1582C114.414 82.2992 114.578 83.4401 114.578 84.6064L114.515 86.0516C114.363 88.2954 114.211 90.5139 114.047 92.707C113.705 96.3707 113.464 100.034 113.35 103.698V104.623C113.35 107.362 113.578 110.1 114.047 112.838C114.084 113.18 114.186 113.548 114.338 113.941C114.376 114.169 114.439 114.385 114.515 114.575C115.135 113.992 115.553 113.358 115.781 112.661L116.009 112.192C118.554 106.981 120.731 101.644 122.542 96.1552C122.884 95.2297 123.238 94.279 123.58 93.3155C123.732 92.8465 123.909 92.3901 124.099 91.921C124.795 89.88 125.58 87.8644 126.466 85.8995L127.619 83.5796C128.201 82.6161 128.885 82.1344 129.695 82.1344C129.961 82.1344 130.239 82.1978 130.505 82.3119C131.24 82.6922 131.607 83.3514 131.607 84.2768C131.607 84.543 131.569 84.8599 131.493 85.2022C130.569 88.8278 129.606 92.4535 128.606 96.0791C127.34 100.592 126.163 105.143 125.087 109.732C124.859 110.772 124.643 111.799 124.453 112.8C124.15 114.575 123.744 116.35 123.238 118.124C122.858 119.278 122.39 120.381 121.845 121.42C120.807 123.195 119.529 124.552 118.035 125.477C116.579 126.453 114.983 126.91 113.287 126.91Z" fill="#FEE588"/>
<path d="M145.532 160.187C142.329 160.187 139.62 159.16 137.379 157.094C135.138 155.027 133.834 152.276 133.454 148.841L133.34 146.584C133.34 142.223 134.479 137.343 136.746 131.942C139.48 125.185 143.215 119.012 147.963 113.421C150.736 110.176 153.496 106.905 156.23 103.584L156.344 103.47C156.61 103.165 156.749 102.849 156.749 102.544C156.521 99.73 156.129 96.9664 155.597 94.2662C154.977 91.2617 153.977 88.346 152.597 85.5317L149.469 95.8381C148.355 99.8567 146.912 103.749 145.14 107.526C144.405 109.111 143.506 110.518 142.418 111.748C140.139 114.03 137.683 115.158 135.024 115.158C132.555 115.158 130.251 114.169 128.086 112.204C125.161 109.276 123.465 105.777 122.996 101.733C122.806 100.148 122.705 98.589 122.705 97.0424C122.705 88.9038 125.541 81.6272 131.2 75.2253C134.163 71.7137 137.581 69.6474 141.43 69.0262C141.936 68.9501 142.43 68.9121 142.937 68.9121C144.709 68.9121 146.355 69.3685 147.874 70.2686C149.394 71.1813 150.584 72.4363 151.432 74.059C151.736 74.6421 152.217 74.9464 152.875 74.9844C155.762 74.9844 158.256 76.0239 160.332 78.1156C163.649 81.361 166.207 85.3289 168.017 90.032C168.321 89.956 168.638 89.7278 168.941 89.3348L169.46 88.7517C171.613 86.4318 174.006 84.3401 176.626 82.4385C177.702 81.7032 178.551 81.3356 179.171 81.3356C179.867 81.3356 180.437 81.6398 180.906 82.261C181.133 82.6413 181.247 83.0724 181.247 83.5287C181.247 84.0358 181.032 84.5175 180.614 84.9993C180.184 85.481 179.703 85.95 179.171 86.4191L178.652 86.8881C175.803 89.8546 173.107 92.9604 170.562 96.2058C170.372 96.472 170.271 96.7255 170.271 96.9537L170.385 97.5369C171.575 103.127 172.182 108.693 172.182 114.207C172.182 122.232 170.777 130.18 167.967 138.053C165.89 143.922 162.763 149.17 158.598 153.798C155.673 157.157 152.014 159.223 147.621 159.997C146.925 160.123 146.228 160.187 145.532 160.187ZM136.34 100.06C138.037 97.5495 139.328 95.0014 140.215 92.4153L141.076 89.8165C141.924 87.1924 142.911 84.6063 144.025 82.0582C144.139 81.83 144.203 81.6145 144.203 81.4243C144.203 81.1201 144.089 80.8412 143.861 80.613C143.43 80.0299 143.114 79.751 142.873 79.751C142.759 79.751 142.645 79.8017 142.531 79.8904C142.418 79.9918 142.304 80.0933 142.19 80.2073C142.076 80.3214 141.962 80.4229 141.848 80.4989C141.62 80.6891 141.405 80.9299 141.215 81.1962C139.138 83.7823 137.695 86.6726 136.885 89.8799C136.265 91.8449 135.961 93.9112 135.961 96.0663C135.935 97.334 136.075 98.6651 136.34 100.06ZM143.975 148.955C144.519 148.955 145.152 148.575 145.887 147.801C148.621 145.063 150.837 141.78 152.533 137.964C154.382 133.109 155.572 128.101 156.116 122.98C156.496 120.203 156.775 117.427 156.927 114.651L156.635 114.587L153.394 119.506C149.849 124.754 146.849 130.332 144.38 136.227C142.987 139.853 142.304 143.035 142.304 145.773C142.304 146.115 142.304 146.483 142.304 146.876C142.304 147.256 142.367 147.636 142.481 148.004C142.595 148.372 142.886 148.651 143.342 148.841C143.57 148.917 143.785 148.955 143.975 148.955Z" fill="#FEE588"/>
<path d="M209.924 126.681C208.493 126.681 207.113 126.314 205.759 125.579C204.404 124.843 203.29 123.74 202.404 122.283C200.441 118.885 199.163 115.259 198.593 111.406C198.01 108.046 197.732 104.687 197.732 101.34C197.732 97.0553 198.15 92.7704 198.998 88.4983L199.061 87.9785C199.061 87.8644 198.998 87.7123 198.884 87.5095C198.732 87.6996 198.593 87.8898 198.479 88.0926C198.251 88.3969 198.036 88.7138 197.846 89.018L191.541 98.9188C190.655 100.313 189.591 101.568 188.363 102.684C186.894 103.837 185.401 104.421 183.856 104.421C182.083 104.421 180.412 103.635 178.83 102.05C176.437 99.2357 175.133 96.0284 174.905 92.4408L174.791 89.842C174.791 85.4431 175.614 81.3738 177.272 77.6341C178.931 73.8943 181.476 70.5349 184.907 67.5685C186.059 66.567 187.3 65.7683 188.629 65.1725C189.958 64.5767 191.351 64.2725 192.82 64.2725C193.63 64.2725 194.453 64.3739 195.301 64.564C199.618 65.4514 202.277 68.0756 203.277 72.4365C203.315 72.5886 203.353 72.7661 203.391 72.9562C203.467 73.1084 203.53 73.2985 203.568 73.5394C204.151 73.0703 204.645 72.7154 205.075 72.4365C206.189 71.7012 207.291 71.3336 208.367 71.3336C209.367 71.3336 210.291 71.6505 211.139 72.2843C211.988 72.9182 212.646 73.8436 213.102 75.0353C213.52 76.303 213.735 77.596 213.735 78.9144C213.735 79.9159 213.659 80.9047 213.507 81.8682L212.469 88.232C211.886 91.3252 211.393 94.4184 210.962 97.5497C210.38 101.061 210.101 104.573 210.101 108.084C210.101 111.254 210.506 114.41 211.317 117.579C211.355 117.655 211.38 117.732 211.38 117.808C211.532 118.619 211.886 119.392 212.418 120.127C213.19 118.936 213.748 117.693 214.089 116.426C214.127 116.312 214.165 116.21 214.203 116.134C215.71 111.114 217.33 105.676 219.052 99.8189C220.787 93.9874 222.407 88.5743 223.901 83.5542L224.079 82.9204C224.344 81.9569 225.256 81.5259 226.801 81.6527L227.206 81.7161C228.092 82.0203 228.535 82.5654 228.535 83.3387L228.472 83.8078C228.358 84.505 228.168 85.4431 227.889 86.6474C227.623 87.8391 227.345 89.0434 227.079 90.235C226.813 91.4647 226.598 92.4281 226.446 93.1254C224.091 102.189 221.686 111.127 219.217 119.925C218.141 123.056 216.773 124.97 215.115 125.68C213.469 126.327 211.734 126.681 209.924 126.681ZM185.527 95.7115C185.793 95.4073 186.034 95.1284 186.223 94.9002C186.641 94.4311 187.008 94.0128 187.325 93.6325C188.477 92.0859 189.617 90.5012 190.731 88.8913C192.921 85.684 195.314 82.6415 197.897 79.7511C198.631 78.8637 198.998 78.0017 198.998 77.1523C198.998 76.4171 198.821 75.6818 198.479 74.9592C197.821 73.5647 196.922 72.8802 195.757 72.8802C195.099 72.8802 194.428 73.1084 193.731 73.5774C192.225 74.693 191.047 76.0875 190.212 77.7481C188.287 81.1076 186.996 84.6698 186.337 88.4602C186.11 89.4617 185.907 90.5012 185.755 91.5534C185.603 92.6183 185.527 93.7212 185.527 94.8748V95.7115Z" fill="#FEE588"/>
<path d="M232.231 117.528C232.307 115.601 232.408 113.674 232.522 111.735C232.712 109.263 232.814 106.778 232.814 104.268V103.52C232.776 100.934 232.345 98.4113 231.547 95.9393C230.661 93.3912 229.155 91.3121 227.04 89.6895C225.116 88.1049 223.116 86.609 221.027 85.1765C218.558 83.4017 216.709 81.1959 215.481 78.5464C214.253 75.9096 213.633 73.1333 213.633 70.2429C213.633 66.9976 214.418 63.879 215.975 60.8619C217.532 57.8448 219.874 55.4235 223.002 53.5726C223.926 53.0655 224.875 52.6472 225.838 52.3049C226.8 51.9626 227.8 51.7852 228.838 51.7852C229.256 51.7852 229.686 51.8232 230.104 51.8992C235.118 52.9007 237.928 56.108 238.549 61.5084C238.625 62.2057 238.663 62.8776 238.663 63.5368C238.663 65.8567 238.359 68.0878 237.764 70.2556C237.169 72.4107 236.371 74.5151 235.371 76.5688C235.219 76.835 235.143 77.0758 235.143 77.266C235.143 77.5322 235.333 77.8111 235.725 78.0773C242.701 83.3256 246.246 90.3233 246.36 99.0832V99.6663C246.36 102.988 246.107 106.309 245.613 109.618L245.385 111.469C244.917 115.437 244.676 119.442 244.638 123.448V123.74C244.638 124.856 244.854 125.958 245.271 127.036C245.423 127.581 245.677 127.847 246.018 127.847C246.208 127.847 246.436 127.771 246.715 127.619C247.639 126.96 248.462 126.212 249.196 125.363C252.665 121.116 255.223 116.387 256.881 111.19C259.388 104.129 261.73 96.9915 263.933 89.7782C264.478 88.0034 265.035 86.216 265.604 84.3905L265.832 83.8073C265.908 83.6552 265.984 83.4777 266.06 83.2876C266.529 82.172 267.2 81.6142 268.086 81.6142C268.238 81.6142 268.415 81.6396 268.605 81.6776C269.567 82.0579 270.048 82.7805 270.048 83.82C270.048 83.9721 270.023 84.1243 269.985 84.2891C269.643 87.2175 269.073 90.1205 268.314 92.9728C265.959 102.81 263.287 112.572 260.274 122.257C258.882 126.39 256.729 130.015 253.805 133.134C251.564 135.72 248.753 137.165 245.36 137.469H244.955C242.258 137.469 239.903 136.506 237.903 134.579C235.016 131.612 233.282 128.063 232.7 123.93C232.396 122.155 232.231 120.381 232.231 118.606V117.528ZM228.471 73.1967C229.091 71.4599 229.395 69.7105 229.395 67.9357C229.395 66.7441 229.256 65.5271 228.99 64.2847C227.483 66.3257 226.736 68.0878 226.736 69.5457C226.736 70.8261 227.319 72.0431 228.471 73.1967Z" fill="#FEE588"/>
<path d="M85.6736 164.637C84.9013 165.828 84.167 167.045 83.4707 168.288C83.7492 168.072 84.0151 167.844 84.281 167.616L84.914 167.134C89.0793 163.813 92.1812 159.87 94.3335 155.142C90.8012 157.994 87.9399 161.151 85.6736 164.637Z" fill="#FE97C4"/>
<path d="M253.578 187.836C253.287 184.996 251.262 182.892 248.4 182.486L247.641 182.435C245.058 182.435 242.931 183.944 242.032 186.378C241.829 186.898 241.678 187.443 241.589 188.001C240.703 192.057 239.918 196.203 239.234 200.335C238.994 201.857 238.728 203.39 238.436 205.051C238.158 206.889 237.791 208.715 237.335 210.515C237.411 209.07 237.576 207.574 237.829 206.002C237.892 205.508 237.968 205 238.069 204.43C238.322 202.871 238.55 201.299 238.74 199.714C238.93 198.028 239.031 196.317 239.031 194.618V193.502C239.031 190.409 238.171 187.506 236.36 184.692C233.587 180.8 230.182 179.976 227.802 179.976C226.852 179.976 225.903 180.128 224.902 180.432C227.08 177.58 228.865 174.461 230.245 171.115C230.954 169.467 231.562 167.781 232.056 166.107C232.625 164.18 232.904 162.152 232.904 159.896L232.828 158.286C232.182 152.72 228.878 148.829 223.269 147.269C220.623 146.686 217.914 146.902 215.458 147.89C214.166 148.41 212.887 149.095 211.571 149.969C205.582 154.191 201.138 159.769 198.366 166.551C195.935 172.547 194.479 178.848 194.011 185.313C193.276 185.871 192.555 186.441 191.871 187.024C188.567 189.801 185.3 192.678 182.122 195.607L182.021 195.417C181.451 194.111 180.97 192.767 180.603 191.423C180.59 191.373 180.578 191.322 180.565 191.271C182.135 191.601 183.832 191.487 185.655 190.802C186.895 190.308 188.009 189.598 188.794 188.863C191.58 186.492 193.517 183.488 194.58 179.811C194.973 178.366 195.163 176.921 195.163 175.526C195.163 171.546 193.732 167.971 191.035 165.182C188.301 162.368 184.756 160.872 180.325 160.72C177.134 160.72 174.134 161.29 171.399 162.431C168.55 163.61 166.005 165.499 163.841 168.022C159.207 173.397 156.548 179.748 155.915 187.037C155.877 187.785 155.852 188.546 155.852 189.294C155.852 190.333 155.953 191.36 156.054 192.399C155.814 193.046 155.523 193.655 155.295 194.301C155.257 194.402 155.219 194.504 155.168 194.605L155.497 189.18C155.497 187.709 155.307 186.238 154.915 184.793C154.484 183.209 153.75 181.7 152.636 180.179C149.813 176.617 146.47 175.869 144.166 175.869C142.824 175.869 141.457 176.148 140.165 176.68C138.026 177.542 136.19 178.886 134.785 180.597C134.709 180.686 134.62 180.787 134.544 180.876C134.329 177.631 132.734 174.854 129.708 172.661C125.77 170.151 121.39 170.24 117.364 172.712C114.616 174.449 112.502 176.819 111.135 179.608C109.603 182.473 108.463 185.465 107.754 188.508C107.564 189.332 107.463 190.181 107.324 191.018C106.64 192.602 105.969 194.174 105.349 195.734C103.589 199.765 101.373 203.581 98.7274 207.168C98.5628 207.409 98.3602 207.599 98.1196 207.739C98.1196 207.739 97.9424 207.726 97.5752 207.536C96.1952 206.839 95.0431 205.913 94.1695 204.81C92.6883 202.833 91.5362 200.665 90.7892 198.472C89.9156 195.683 89.194 192.818 88.6496 189.927C90.6246 189.154 92.5363 188.191 94.3848 187.037C102.994 181.358 109.476 173.726 113.679 164.307C115.135 160.935 115.87 157.436 115.87 153.912C115.87 151.972 115.654 149.982 115.249 148.055C114.718 145.418 113.692 143.073 112.186 141.096C110.54 138.94 108.261 137.356 105.323 136.354C102.576 135.467 99.5883 135.365 96.7017 136.037C91.3589 137.267 86.5732 139.739 82.5345 143.289C80.8 144.759 79.1035 146.344 77.4703 148.03C77.2044 147.776 76.9259 147.535 76.6347 147.307C73.2923 144.683 69.1903 143.935 64.4426 146.002C62.151 147.104 60.2013 148.702 58.6567 150.743C54.4028 156.371 51.5035 162.672 50.0349 169.378C48.0852 177.529 47.0977 185.807 47.0977 193.971C47.0977 201.21 47.794 208.55 49.174 215.776C49.212 216.093 49.2753 216.397 49.3386 216.714C49.6931 219.49 50.4907 222.178 51.7694 224.853C52.9342 227.084 54.5421 228.846 56.5551 230.076C58.5808 231.331 60.809 231.964 63.1639 231.964C65.4301 231.964 67.6331 231.331 69.836 229.987C72.0009 228.58 73.5962 226.754 74.571 224.586C75.4446 222.647 75.8751 220.517 75.8751 218.273V217.614C75.8497 216.98 75.8244 216.359 75.8118 215.725C78.4958 218.73 81.6863 221.24 85.3831 223.243C87.0037 224.079 88.6875 224.764 90.3967 225.284C92.2831 225.867 94.2329 226.158 96.2079 226.158C96.9802 226.158 97.7651 226.12 98.8286 225.994C105.475 224.878 110.514 221.417 113.629 216.029C116.87 218.971 121.01 220.137 125.428 219.199L125.732 219.123C128.404 218.362 130.721 217.031 132.632 215.167C132.708 215.522 132.797 215.865 132.873 216.22C134.076 221.252 136.582 225.575 140.33 229.074L140.646 229.34C143.52 231.572 146.546 232.712 149.648 232.712C151.534 232.712 153.358 232.294 155.067 231.495C154.839 232.408 154.573 233.308 154.421 234.259C154.244 235.438 154.155 236.617 154.155 237.758C154.155 239.647 154.421 241.523 154.953 243.323C155.523 245.25 156.472 247.088 157.865 248.901C161.245 252.996 165.816 255.163 171.108 255.163C173.019 255.163 174.969 254.808 176.881 254.111C178.843 253.401 180.704 252.26 182.439 250.726C188.921 244.895 192.327 237.504 192.529 228.656V227.692C192.529 221.595 191.314 215.675 188.934 210.046C191.099 207.675 193.314 205.343 195.543 203.01C196.859 207.358 199.113 211.225 202.493 214.635C204.848 216.777 207.38 217.855 210.014 217.855C211.786 217.855 214.191 217.335 216.597 215.142C216.648 215.649 216.698 216.156 216.762 216.663C216.989 218.565 217.395 220.441 217.914 222.026C218.952 226.07 221.091 229.556 224.244 232.408L224.573 232.674C227.194 234.627 230.017 235.615 232.98 235.615C236.158 235.615 239.234 234.601 242.083 232.624C244.412 231.026 246.248 228.935 247.552 226.412C249.249 223.154 250.35 219.655 250.844 216.042C251.173 213.735 251.451 211.402 251.667 209.044L252.338 202.326C252.844 198.193 253.237 193.971 253.528 189.902L253.616 188.913L253.578 187.836ZM84.9147 168.846L84.2817 169.327C84.0158 169.555 83.7499 169.784 83.4714 169.999C84.1804 168.744 84.9147 167.527 85.6743 166.348C87.9279 162.862 90.7892 159.705 94.3215 156.853C92.1818 161.582 89.08 165.524 84.9147 168.846Z" fill="#FE97C4"/>
<path d="M63.2147 227.591C61.7208 227.591 60.3408 227.198 59.0494 226.4C57.758 225.601 56.7199 224.46 55.9349 222.964C54.9094 220.796 54.2511 218.527 53.9725 216.157C53.8966 215.878 53.8459 215.586 53.8079 215.307C52.4659 208.284 51.7949 201.261 51.7949 194.238C51.7949 186.404 52.7318 178.556 54.6056 170.722C55.9476 164.548 58.5557 158.907 62.4171 153.798C63.5186 152.34 64.8733 151.225 66.5065 150.451C67.57 149.995 68.5955 149.754 69.583 149.754C71.1782 149.754 72.5962 150.236 73.8369 151.212C75.0777 152.188 75.9259 153.545 76.3817 155.281L76.6476 156.296C79.4076 152.86 82.3828 149.792 85.5732 147.092C89.1182 143.974 93.1949 141.882 97.7907 140.817C98.7149 140.601 99.6264 140.5 100.551 140.5C101.715 140.5 102.855 140.677 103.956 141.032C105.944 141.704 107.476 142.757 108.552 144.176C109.628 145.596 110.363 147.282 110.755 149.234C111.11 150.908 111.287 152.556 111.287 154.179C111.287 157.082 110.679 159.947 109.476 162.748C105.653 171.331 99.791 178.227 91.8909 183.45C89.5487 184.908 87.0419 186.023 84.3452 186.797C84.13 186.835 83.9527 186.898 83.8134 186.987C83.6742 187.075 83.5982 187.266 83.5982 187.544V187.76C84.2059 191.981 85.1428 196.114 86.4088 200.158C87.371 202.922 88.7257 205.495 90.4982 207.878C91.8782 209.615 93.5621 210.984 95.5498 211.973C96.474 212.429 97.3349 212.67 98.1578 212.67C99.12 212.67 99.9683 212.417 100.703 211.922C101.45 211.428 102.07 210.82 102.564 210.11C105.362 206.319 107.717 202.237 109.628 197.876C110.932 194.644 112.325 191.474 113.768 188.356C114.376 187.05 115.072 186.391 115.895 186.391C116.11 186.391 116.338 186.442 116.592 186.556C117.339 186.809 117.706 187.43 117.706 188.419C117.706 188.774 117.655 189.205 117.541 189.7C116.655 193.528 115.579 197.306 114.3 201.033C113.844 202.377 113.401 203.733 112.971 205.077C112.692 205.888 112.439 206.712 112.224 207.523C111.945 208.588 111.603 209.628 111.211 210.667C109.008 216.942 104.64 220.632 98.0819 221.734C97.4488 221.81 96.8285 221.836 96.2208 221.836C94.7015 221.836 93.2076 221.62 91.7516 221.177C90.2956 220.733 88.8777 220.162 87.4977 219.453C82.0789 216.511 77.9136 212.303 75.0144 206.839C73.5584 204.253 72.3177 201.515 71.2922 198.65C71.1529 198.865 71.0769 199.055 71.0769 199.233L71.1276 199.664L71.0769 209.717C71.0769 212.518 71.1276 215.32 71.2415 218.121V218.603C71.2415 220.201 70.9377 221.671 70.3426 223.015C69.7349 224.359 68.7347 225.5 67.3167 226.425C66.0127 227.186 64.6327 227.591 63.2147 227.591ZM78.3061 177.847C78.6986 177.847 79.1037 177.796 79.5342 177.682C82.4334 176.617 85.0415 175.07 87.3457 173.055C87.4217 173.017 87.4723 172.979 87.5103 172.953C93.3595 168.377 97.4995 162.583 99.943 155.56C100.437 154.356 100.741 153.101 100.842 151.783V151.352C100.842 150.363 100.386 149.856 99.4619 149.856L98.7149 149.906C95.9929 150.439 93.5621 151.63 91.4351 153.469C87.5736 156.549 84.3578 160.086 81.7877 164.054C79.2177 168.022 77.0147 172.281 75.1789 176.82C75.103 176.959 75.0777 177.099 75.0777 177.251C75.0777 177.289 75.0903 177.327 75.1283 177.377C75.1663 177.428 75.2549 177.454 75.3942 177.454C75.8246 177.492 76.2424 177.542 76.6729 177.618C77.192 177.77 77.7364 177.847 78.3061 177.847Z" fill="#FEE588"/>
<path d="M149.725 228.327C147.674 228.327 145.61 227.528 143.559 225.931C140.483 223.053 138.444 219.541 137.444 215.396C136.773 212.696 136.431 209.983 136.431 207.257L136.533 204.278C136.533 203.568 136.57 202.896 136.634 202.263V202.098L136.419 201.996C135.811 202.96 135.254 203.911 134.722 204.874C133.481 207.067 132.051 209.133 130.417 211.048C128.86 212.962 126.898 214.255 124.518 214.927C123.847 215.066 123.188 215.142 122.555 215.142C119.897 215.142 117.63 214.027 115.757 211.796C113.237 208.855 111.844 205.483 111.553 201.692C111.452 200.45 111.389 199.233 111.389 198.016C111.389 195.214 111.705 192.489 112.313 189.826C112.933 187.164 113.921 184.578 115.263 182.055C116.326 179.888 117.871 178.176 119.884 176.896C121.163 176.11 122.454 175.729 123.758 175.729C124.923 175.729 126.1 176.097 127.265 176.845C129.075 178.163 129.974 179.837 129.974 181.903C129.974 182.791 129.797 183.716 129.443 184.667C128.303 187.747 127.366 190.904 126.632 194.137C126.455 194.948 126.353 195.772 126.315 196.583C126.277 197.395 126.265 198.219 126.265 199.03H126.429C126.531 199.03 126.619 199.005 126.67 198.954C126.721 198.903 126.771 198.84 126.809 198.764C126.847 198.688 126.885 198.637 126.91 198.599C128.822 196.33 130.595 194.022 132.228 191.677C134.14 188.977 136.178 186.391 138.343 183.906C139.33 182.702 140.533 181.814 141.951 181.244C142.736 180.927 143.496 180.762 144.23 180.762C146.104 180.762 147.724 181.612 149.066 183.31C149.737 184.236 150.219 185.212 150.497 186.264C150.776 187.316 150.928 188.368 150.928 189.433L150.877 190.764C150.738 192.818 150.598 194.859 150.446 196.887C150.13 200.26 149.915 203.632 149.813 206.991V207.84C149.813 210.363 150.029 212.873 150.446 215.396C150.484 215.713 150.573 216.055 150.712 216.41C150.75 216.626 150.801 216.816 150.877 216.993C151.447 216.461 151.839 215.878 152.042 215.244L152.257 214.813C154.599 210.021 156.599 205.115 158.258 200.082C158.575 199.233 158.891 198.358 159.22 197.471C159.359 197.04 159.524 196.621 159.701 196.19C160.334 194.314 161.069 192.463 161.879 190.663L162.942 188.533C163.474 187.646 164.107 187.202 164.854 187.202C165.107 187.202 165.348 187.253 165.601 187.367C166.272 187.722 166.614 188.33 166.614 189.18C166.614 189.433 166.576 189.712 166.513 190.029C165.664 193.363 164.778 196.697 163.854 200.031C162.689 204.177 161.6 208.36 160.613 212.582C160.398 213.545 160.208 214.483 160.03 215.396C159.752 217.031 159.372 218.654 158.916 220.289C158.562 221.354 158.131 222.368 157.638 223.319C156.675 224.954 155.511 226.197 154.131 227.046C152.751 227.908 151.282 228.327 149.725 228.327Z" fill="#FEE588"/>
<path d="M171.183 250.778C167.246 250.778 164.03 249.256 161.51 246.201C160.548 244.959 159.877 243.653 159.459 242.259C159.054 240.877 158.852 239.457 158.852 237.999C158.852 237.074 158.928 236.136 159.067 235.185C159.523 232.459 160.32 229.873 161.46 227.439C162.599 225.005 163.916 222.673 165.448 220.441C166.372 219.098 167.347 217.779 168.372 216.499L169.005 215.65C169.221 215.396 169.322 215.13 169.322 214.851C169.322 214.635 169.271 214.42 169.157 214.217C167.385 210.705 165.663 207.194 164.004 203.682C162.941 201.413 162.105 199.093 161.485 196.735C160.865 194.377 160.561 191.969 160.561 189.522C160.561 188.85 160.573 188.178 160.611 187.506C161.143 181.333 163.409 175.932 167.41 171.28C169.107 169.29 171.044 167.844 173.234 166.944C175.412 166.044 177.792 165.588 180.374 165.588C183.426 165.689 185.882 166.716 187.756 168.643C189.629 170.583 190.566 172.941 190.566 175.742C190.566 176.731 190.427 177.758 190.136 178.823C189.351 181.523 187.92 183.754 185.831 185.529C185.299 186.023 184.679 186.416 183.97 186.695C183.4 186.911 182.856 187.012 182.324 187.012C181.438 187.012 180.704 186.733 180.121 186.163C179.539 185.592 179.197 184.781 179.083 183.716L179.032 183.082L179.083 182.119L179.032 181.536V181.269C179.032 180.661 178.893 180.04 178.602 179.406C176.728 181.358 175.728 183.64 175.627 186.264L175.525 187.963C175.525 189.636 175.741 191.259 176.159 192.831C176.589 194.415 177.133 195.962 177.804 197.483L179.298 200.564C179.653 201.236 180.007 201.933 180.362 202.643C180.501 203.036 180.666 203.226 180.843 203.226C181.02 203.226 181.235 203.087 181.476 202.795C185.793 198.65 190.262 194.644 194.871 190.777C196.428 189.433 198.074 188.204 199.808 187.101C200.416 186.708 200.948 186.518 201.404 186.518C201.897 186.518 202.328 186.733 202.682 187.152C202.936 187.468 203.05 187.849 203.05 188.267C203.05 188.8 202.746 189.37 202.151 189.966C196.023 195.962 190.072 202.148 184.299 208.538C183.983 208.893 183.818 209.248 183.818 209.603C183.818 209.856 183.869 210.122 183.983 210.401C186.641 215.966 187.971 221.811 187.971 227.908V228.872C187.794 236.326 184.945 242.525 179.412 247.494C178.134 248.635 176.792 249.459 175.374 249.966C173.968 250.524 172.563 250.778 171.183 250.778ZM169.968 240.522C170.221 240.522 170.461 240.42 170.714 240.205C172.094 238.925 172.981 237.403 173.373 235.628C173.652 234.133 173.804 232.662 173.804 231.217C173.804 228.872 173.487 226.539 172.841 224.194C170.93 226.995 169.474 230.013 168.486 233.233C168.056 234.513 167.853 235.844 167.853 237.226V237.593C167.891 238.696 168.372 239.584 169.284 240.256C169.524 240.433 169.752 240.522 169.968 240.522Z" fill="#FEE588"/>
<path d="M233.03 231.255C231.08 231.255 229.207 230.583 227.396 229.239C224.915 227.008 223.269 224.308 222.459 221.151C221.965 219.592 221.623 218.007 221.42 216.384C221.23 214.774 221.129 213.152 221.129 211.516C221.129 210.35 221.167 209.159 221.23 207.954C221.37 206.217 221.572 204.481 221.813 202.744C221.952 201.933 222.079 201.096 222.18 200.247C222.218 199.892 222.231 199.537 222.231 199.182C222.091 199.22 221.977 199.27 221.889 199.347C221.8 199.423 221.724 199.511 221.648 199.613C221.572 199.714 221.509 199.803 221.433 199.879C220.116 201.869 218.863 203.91 217.66 206.002C217.445 206.357 217.217 206.725 216.964 207.118C216.331 208.22 215.634 209.336 214.888 210.464C213.432 212.48 211.824 213.494 210.051 213.494C208.595 213.494 207.127 212.822 205.645 211.478C202.809 208.601 200.86 205.216 199.796 201.311C198.91 197.838 198.467 194.301 198.467 190.726C198.467 189.167 198.517 187.582 198.631 185.985C199.062 179.951 200.404 174.145 202.67 168.529C205.114 162.57 208.975 157.728 214.254 154.001C215.217 153.367 216.192 152.834 217.204 152.429C218.217 152.023 219.268 151.82 220.37 151.82C221.003 151.82 221.648 151.896 222.281 152.036C225.826 153.025 227.801 155.37 228.232 159.059L228.282 160.339C228.282 161.975 228.054 163.547 227.624 165.042C227.181 166.551 226.637 168.047 226.003 169.543C223.775 174.931 220.445 179.558 216.014 183.424C214.85 184.413 213.571 185.148 212.191 185.605C211.52 185.858 211.178 186.302 211.178 186.936C211.14 187.43 211.089 187.924 211.013 188.432C210.912 189.141 210.836 189.864 210.798 190.612C210.722 192.032 210.697 193.464 210.697 194.922C210.697 197.546 210.861 200.259 211.178 203.061C212.381 201.324 213.457 199.714 214.419 198.218C216.825 194.529 219.483 191.068 222.395 187.848L222.56 187.684C223.408 186.72 224.396 185.96 225.535 185.402C226.32 185.047 227.08 184.869 227.814 184.869C229.688 184.869 231.283 185.795 232.6 187.633C233.802 189.509 234.41 191.55 234.41 193.756V194.872C234.41 196.393 234.321 197.914 234.144 199.423C233.967 200.931 233.752 202.427 233.511 203.923C233.41 204.531 233.321 205.115 233.245 205.672C232.853 208.018 232.663 210.338 232.663 212.645C232.663 214.812 232.891 216.968 233.359 219.135C233.714 220.593 234.321 221.937 235.17 223.179C235.448 223.572 235.714 223.762 235.967 223.762C236.246 223.762 236.537 223.623 236.816 223.331C237.955 222.267 238.816 221.012 239.424 219.554C241.12 215.155 242.323 210.629 243.032 205.989C243.31 204.43 243.576 202.871 243.83 201.311C244.501 197.191 245.285 193.122 246.172 189.078C246.21 188.799 246.273 188.533 246.387 188.279C246.602 187.646 247.02 187.316 247.666 187.316H247.767C248.514 187.417 248.919 187.836 248.995 188.546L249.046 189.18L248.995 189.763C248.716 193.883 248.324 197.977 247.83 202.047L247.349 206.572L247.134 208.918C246.919 211.187 246.653 213.443 246.336 215.675C245.906 218.793 244.969 221.759 243.526 224.561C242.563 226.412 241.247 227.908 239.538 229.087C237.423 230.532 235.258 231.255 233.03 231.255ZM212.368 180.344L212.799 180.077C216.939 176.312 219.812 171.799 221.408 166.513C221.838 165.169 222.041 163.787 222.041 162.368C222.041 161.835 222.003 161.303 221.939 160.77C221.901 160.377 221.775 160.187 221.572 160.187C221.471 160.187 221.306 160.263 221.091 160.403C220.306 161.011 219.635 161.721 219.078 162.532C216.419 166.5 214.546 170.811 213.444 175.463C212.963 176.972 212.609 178.607 212.368 180.344Z" fill="#FEE588"/>
</g>
<defs>
<clipPath id="clip0_208_301">
<rect width="277" height="256" fill="white"/>
</clipPath>
</defs>
</svg>
